<svg fill="none" height="32" viewBox="0 0 121 32" width="121" xmlns="http://www.w3.org/2000/svg"><path d="M25 22V3H3v26h15v3h10V22zM0 0h28v32H0zm20 24h8l-8 8zM9 9h10v3H9zm0 5h8v3H9zm0 5h3v3H9z" fill="#ef4a25"/><g fill="#181325"><path d="M42.822 6.31v2.3h-1.266c-.698 0-1.085.388-1.085 1.111v1.576h2.351v2.61h-2.351V24.89H37.37V13.907H36v-2.61h1.37V9.643c0-1.808.723-3.643 3.204-3.643.724 0 1.732.155 2.248.31zm1.395 4.987h3.1V24.89h-3.1zm0-5.09h3.1v2.816h-3.1zM50.108 6.207h3.101V24.89h-3.101zM58.662 16.62h3.617c0-1.963-.516-3.1-1.653-3.1-1.318 0-1.861 1.137-1.964 3.1zm6.873 1.474v.775h-6.899c.026 2.43.568 3.798 2.093 3.798 1.06 0 1.731-.955 1.731-2.583h3.075c0 3.488-2.04 5.116-4.806 5.116-3.489 0-5.323-2.222-5.323-7.106s1.86-7.107 5.22-7.107c3.282 0 4.91 2.223 4.91 7.107zm11.37-3.411c0 .284-.026.568-.026.594h-3.153c0-1.214-.594-1.757-1.524-1.757-.956 0-1.602.516-1.602 1.344 0 2.635 6.641.568 6.641 5.943 0 3.308-2.17 4.393-5.065 4.393-3.127 0-4.936-1.732-4.936-4.316 0-.129.026-.31.026-.31h3.153v.181c.026 1.447.982 1.912 1.86 1.912.827 0 1.809-.361 1.809-1.473 0-2.868-6.64-.826-6.64-6.072 0-2.765 2.144-4.135 4.857-4.135 2.585 0 4.6 1.37 4.6 3.696zm7.933-3.386v2.61h-1.964v7.572c0 .723.387 1.11 1.085 1.11h.879v2.3c-.44.156-1.266.31-1.861.31-2.481 0-3.204-1.834-3.204-3.642v-7.65h-1.37v-2.61h1.37l.465-3.824h2.636v3.824zm3.927 9.794c0 .93.465 1.525 1.525 1.525 1.473 0 2.04-1.37 2.04-2.972v-.775c-1.807 0-3.565.465-3.565 2.222zm6.693-6.098v6.693c0 .646.362.904.724.904h.62v2.197c-.337.18-.905.413-1.835.413-1.24 0-2.093-.723-2.403-1.783h-.13c-.775 1.085-1.628 1.783-3.436 1.783-1.267 0-3.411-.672-3.411-3.824 0-3.67 2.79-4.755 6.744-4.755v-1.422c0-.93-.232-1.679-1.42-1.679-1.268 0-1.629.775-1.629 1.421v.387h-3.024c-.026-.154-.026-.335-.026-.568 0-2.274 1.81-3.773 4.6-3.773 3.153 0 4.626 1.473 4.626 4.006zm12.403 1.421h-3.178c0-1.912-.517-2.817-1.576-2.817-1.319 0-1.809 1.396-1.809 4.006v.982c0 2.61.516 4.005 1.912 4.005 1.111 0 1.576-.956 1.576-2.816h3.075c0 3.798-1.809 5.426-4.651 5.426-3.54 0-5.143-2.222-5.143-7.106s1.68-7.106 5.04-7.106c2.893 0 4.754 1.627 4.754 5.426zM117.086 11.297h3.308l-4.032 5.531 4.238 8.062h-3.437l-2.739-5.633-1.137 1.395v4.238h-3.101V6.207h3.101v10.492z"/></g></svg>